#Comment line ignore any data following # character 
#Hierarchical Translation and Rotation (.htr) file 
[Header]	
#Header keywords are followed by a single value 
FileType HTR		#Single word string
DataType HTRS		#Translation followed by rotation and scale data
FileVersion 1		#integer
NumSegments 84		#integer
NumFrames 2		#integer
DataFrameRate 30		#integer, data frame rate in this file
EulerRotationOrder ZYX
CalibrationUnits mm
RotationUnits Degrees
GlobalAxisofGravity Y
BoneLengthAxis Y
ScaleFactor 1.00
[SegmentNames&Hierarchy]
#CHILD	PARENT
MASTER GLOBAL
root MASTER
chest root
L_mid_tent01 root
R_mid_tent01 root
spine01 root
Bip01_Neck chest
L_humerus chest
R_humerus chest
weapon_bone chest
Bip01_Head Bip01_Neck
eye_left_bone Bip01_Head
eye_right_bone Bip01_Head
L_forearm L_humerus
L_front_hand L_forearm
L_weapon_bone L_forearm
L_front_hand01_01 L_front_hand
L_front_hand02_01 L_front_hand
L_front_hand03_01 L_front_hand
L_front_hand01_02 L_front_hand01_01
L_front_hand02_02 L_front_hand02_01
L_front_hand03_02 L_front_hand03_01
R_forearm R_humerus
R_front_hand R_forearm
R_weapon_bone R_forearm
R_front_hand01_01 R_front_hand
R_front_hand02_01 R_front_hand
R_front_hand03_01 R_front_hand
R_front_hand01_02 R_front_hand01_01
R_front_hand02_02 R_front_hand02_01
R_front_hand03_02 R_front_hand03_01
null_rope01_connect L_mid_tent01
Rope1_Seg01 null_rope01_connect
Rope1_Seg02 Rope1_Seg01
Rope1_Seg03 Rope1_Seg02
Rope1_Seg04 Rope1_Seg03
Rope1_Seg05 Rope1_Seg04
Rope1_Seg06 Rope1_Seg05
Rope1_Seg07 Rope1_Seg06
Rope1_Seg09 Rope1_Seg07
L_mid_hand01 Rope1_Seg09
L_mid_hand02 Rope1_Seg09
L_mid_hand03 Rope1_Seg09
null_rope02_connect R_mid_tent01
Rope2_Seg01 null_rope02_connect
Rope2_Seg02 Rope2_Seg01
Rope2_Seg03 Rope2_Seg02
Rope2_Seg04 Rope2_Seg03
Rope2_Seg05 Rope2_Seg04
Rope2_Seg06 Rope2_Seg05
Rope2_Seg07 Rope2_Seg06
Rope2_Seg09 Rope2_Seg07
R_mid_hand01 Rope2_Seg09
R_mid_hand02 Rope2_Seg09
R_mid_hand03 Rope2_Seg09
spine02 spine01
spine03 spine02
pelvis spine03
null_rope03_connect pelvis
null_rope04_connect pelvis
Rope3_Seg01 null_rope03_connect
Rope3_Seg02 Rope3_Seg01
Rope3_Seg03 Rope3_Seg02
Rope3_Seg04 Rope3_Seg03
Rope3_Seg05 Rope3_Seg04
Rope3_Seg06 Rope3_Seg05
Rope3_Seg07 Rope3_Seg06
Rope3_Seg08 Rope3_Seg07
Rope3_Seg09 Rope3_Seg08
R_rear_hand01 Rope3_Seg09
R_rear_hand02 Rope3_Seg09
R_rear_hand03 Rope3_Seg09
Rope4_Seg01 null_rope04_connect
Rope4_Seg02 Rope4_Seg01
Rope4_Seg03 Rope4_Seg02
Rope4_Seg04 Rope4_Seg03
Rope4_Seg05 Rope4_Seg04
Rope4_Seg06 Rope4_Seg05
Rope4_Seg07 Rope4_Seg06
Rope4_Seg08 Rope4_Seg07
Rope4_Seg09 Rope4_Seg08
L_rear_hand01 Rope4_Seg09
L_rear_hand02 Rope4_Seg09
L_rear_hand03 Rope4_Seg09
[BasePosition]
#SegmentName Tx, Ty, Tz, Rx, Ry, Rz, BoneLength
MASTER 0.000000 0.000000 0.000000 -90.000000 0.000000 0.000000 10.000000 
root 0.000000 0.000000 0.000000 0.000000 0.000000 0.000000 10.000000 
chest 0.000000 0.000000 0.000000 0.000000 0.000000 0.000000 10.000000 
L_mid_tent01 0.000000 0.000000 0.000000 0.000000 0.000000 0.000000 10.000000 
R_mid_tent01 0.000000 0.000000 0.000000 0.000000 0.000000 0.000000 10.000000 
spine01 0.000000 0.000000 0.000000 0.000000 0.000000 0.000000 10.000000 
Bip01_Neck 0.000000 0.000000 0.000000 0.000000 0.000000 0.000000 10.000000 
L_humerus 0.000000 0.000000 0.000000 0.000000 0.000000 0.000000 10.000000 
R_humerus 0.000000 0.000000 0.000000 0.000000 0.000000 0.000000 10.000000 
weapon_bone 0.000000 0.000000 0.000000 0.000000 0.000000 0.000000 10.000000 
Bip01_Head 0.000000 0.000000 0.000000 0.000000 0.000000 0.000000 10.000000 
eye_left_bone 0.000000 0.000000 0.000000 0.000000 0.000000 0.000000 10.000000 
eye_right_bone 0.000000 0.000000 0.000000 0.000000 0.000000 0.000000 10.000000 
L_forearm 0.000000 0.000000 0.000000 0.000000 0.000000 0.000000 10.000000 
L_front_hand 0.000000 0.000000 0.000000 0.000000 0.000000 0.000000 10.000000 
L_weapon_bone 0.000000 0.000000 0.000000 0.000000 0.000000 0.000000 10.000000 
L_front_hand01_01 0.000000 0.000000 0.000000 0.000000 0.000000 0.000000 10.000000 
L_front_hand02_01 0.000000 0.000000 0.000000 0.000000 0.000000 0.000000 10.000000 
L_front_hand03_01 0.000000 0.000000 0.000000 0.000000 0.000000 0.000000 10.000000 
L_front_hand01_02 0.000000 0.000000 0.000000 0.000000 0.000000 0.000000 10.000000 
L_front_hand02_02 0.000000 0.000000 0.000000 0.000000 0.000000 0.000000 10.000000 
L_front_hand03_02 0.000000 0.000000 0.000000 0.000000 0.000000 0.000000 10.000000 
R_forearm 0.000000 0.000000 0.000000 0.000000 0.000000 0.000000 10.000000 
R_front_hand 0.000000 0.000000 0.000000 0.000000 0.000000 0.000000 10.000000 
R_weapon_bone 0.000000 0.000000 0.000000 0.000000 0.000000 0.000000 10.000000 
R_front_hand01_01 0.000000 0.000000 0.000000 0.000000 0.000000 0.000000 10.000000 
R_front_hand02_01 0.000000 0.000000 0.000000 0.000000 0.000000 0.000000 10.000000 
R_front_hand03_01 0.000000 0.000000 0.000000 0.000000 0.000000 0.000000 10.000000 
R_front_hand01_02 0.000000 0.000000 0.000000 0.000000 0.000000 0.000000 10.000000 
R_front_hand02_02 0.000000 0.000000 0.000000 0.000000 0.000000 0.000000 10.000000 
R_front_hand03_02 0.000000 0.000000 0.000000 0.000000 0.000000 0.000000 10.000000 
null_rope01_connect 0.000000 0.000000 0.000000 0.000000 0.000000 0.000000 10.000000 
Rope1_Seg01 0.000000 0.000000 0.000000 0.000000 0.000000 0.000000 10.000000 
Rope1_Seg02 0.000000 0.000000 0.000000 0.000000 0.000000 0.000000 10.000000 
Rope1_Seg03 0.000000 0.000000 0.000000 0.000000 0.000000 0.000000 10.000000 
Rope1_Seg04 0.000000 0.000000 0.000000 0.000000 0.000000 0.000000 10.000000 
Rope1_Seg05 0.000000 0.000000 0.000000 0.000000 0.000000 0.000000 10.000000 
Rope1_Seg06 0.000000 0.000000 0.000000 0.000000 0.000000 0.000000 10.000000 
Rope1_Seg07 0.000000 0.000000 0.000000 0.000000 0.000000 0.000000 10.000000 
Rope1_Seg09 0.000000 0.000000 0.000000 0.000000 0.000000 0.000000 10.000000 
L_mid_hand01 0.000000 0.000000 0.000000 0.000000 0.000000 0.000000 10.000000 
L_mid_hand02 0.000000 0.000000 0.000000 0.000000 0.000000 0.000000 10.000000 
L_mid_hand03 0.000000 0.000000 0.000000 0.000000 0.000000 0.000000 10.000000 
null_rope02_connect 0.000000 0.000000 0.000000 0.000000 0.000000 0.000000 10.000000 
Rope2_Seg01 0.000000 0.000000 0.000000 0.000000 0.000000 0.000000 10.000000 
Rope2_Seg02 0.000000 0.000000 0.000000 0.000000 0.000000 0.000000 10.000000 
Rope2_Seg03 0.000000 0.000000 0.000000 0.000000 0.000000 0.000000 10.000000 
Rope2_Seg04 0.000000 0.000000 0.000000 0.000000 0.000000 0.000000 10.000000 
Rope2_Seg05 0.000000 0.000000 0.000000 0.000000 0.000000 0.000000 10.000000 
Rope2_Seg06 0.000000 0.000000 0.000000 0.000000 0.000000 0.000000 10.000000 
Rope2_Seg07 0.000000 0.000000 0.000000 0.000000 0.000000 0.000000 10.000000 
Rope2_Seg09 0.000000 0.000000 0.000000 0.000000 0.000000 0.000000 10.000000 
R_mid_hand01 0.000000 0.000000 0.000000 0.000000 0.000000 0.000000 10.000000 
R_mid_hand02 0.000000 0.000000 0.000000 0.000000 0.000000 0.000000 10.000000 
R_mid_hand03 0.000000 0.000000 0.000000 0.000000 0.000000 0.000000 10.000000 
spine02 0.000000 0.000000 0.000000 0.000000 0.000000 0.000000 10.000000 
spine03 0.000000 0.000000 0.000000 0.000000 0.000000 0.000000 10.000000 
pelvis 0.000000 0.000000 0.000000 0.000000 0.000000 0.000000 10.000000 
null_rope03_connect 0.000000 0.000000 0.000000 0.000000 0.000000 0.000000 10.000000 
null_rope04_connect 0.000000 0.000000 0.000000 0.000000 0.000000 0.000000 10.000000 
Rope3_Seg01 0.000000 0.000000 0.000000 0.000000 0.000000 0.000000 10.000000 
Rope3_Seg02 0.000000 0.000000 0.000000 0.000000 0.000000 0.000000 10.000000 
Rope3_Seg03 0.000000 0.000000 0.000000 0.000000 0.000000 0.000000 10.000000 
Rope3_Seg04 0.000000 0.000000 0.000000 0.000000 0.000000 0.000000 10.000000 
Rope3_Seg05 0.000000 0.000000 0.000000 0.000000 0.000000 0.000000 10.000000 
Rope3_Seg06 0.000000 0.000000 0.000000 0.000000 0.000000 0.000000 10.000000 
Rope3_Seg07 0.000000 0.000000 0.000000 0.000000 0.000000 0.000000 10.000000 
Rope3_Seg08 0.000000 0.000000 0.000000 0.000000 0.000000 0.000000 10.000000 
Rope3_Seg09 0.000000 0.000000 0.000000 0.000000 0.000000 0.000000 10.000000 
R_rear_hand01 0.000000 0.000000 0.000000 0.000000 0.000000 0.000000 10.000000 
R_rear_hand02 0.000000 0.000000 0.000000 0.000000 0.000000 0.000000 10.000000 
R_rear_hand03 0.000000 0.000000 0.000000 0.000000 0.000000 0.000000 10.000000 
Rope4_Seg01 0.000000 0.000000 0.000000 0.000000 0.000000 0.000000 10.000000 
Rope4_Seg02 0.000000 0.000000 0.000000 0.000000 0.000000 0.000000 10.000000 
Rope4_Seg03 0.000000 0.000000 0.000000 0.000000 0.000000 0.000000 10.000000 
Rope4_Seg04 0.000000 0.000000 0.000000 0.000000 0.000000 0.000000 10.000000 
Rope4_Seg05 0.000000 0.000000 0.000000 0.000000 0.000000 0.000000 10.000000 
Rope4_Seg06 0.000000 0.000000 0.000000 0.000000 0.000000 0.000000 10.000000 
Rope4_Seg07 0.000000 0.000000 0.000000 0.000000 0.000000 0.000000 10.000000 
Rope4_Seg08 0.000000 0.000000 0.000000 0.000000 0.000000 0.000000 10.000000 
Rope4_Seg09 0.000000 0.000000 0.000000 0.000000 0.000000 0.000000 10.000000 
L_rear_hand01 0.000000 0.000000 0.000000 0.000000 0.000000 0.000000 10.000000 
L_rear_hand02 0.000000 0.000000 0.000000 0.000000 0.000000 0.000000 10.000000 
L_rear_hand03 0.000000 0.000000 0.000000 0.000000 0.000000 0.000000 10.000000 
#Beginning of Data. Separated by tabs
#Fr	Tx	Ty	Tz	Rx	Ry	Rz	SF
[MASTER]
23 -0.000566 3766.448242 4071.052490 0.001660 0.001660 0.001660 5546.133789
24 -0.000583 3877.895752 4037.421631 0.001660 0.001660 0.001660 5598.111328
[root]
23 -18.365465 4.064651 1453.052246 -94.048370 -15.783158 -90.399254 1453.174072
24 -17.000090 7.944952 1449.584351 -92.457985 -12.897702 -89.751167 1449.705811
[chest]
23 -84.512650 -34.090519 0.000000 -2.056324 0.623019 175.643036 91.129311
24 -84.512650 -34.090519 0.000000 -2.121619 0.293737 171.863831 91.129311
[L_mid_tent01]
23 27.299183 22.179527 -249.918701 -13.177466 27.412041 43.913303 252.381729
24 27.299189 22.179546 -249.918701 -18.123764 20.190395 27.800535 252.381729
[R_mid_tent01]
23 23.228794 24.509907 226.238495 -178.484940 -39.076336 55.508694 228.744751
24 23.228794 24.509907 226.238495 -169.632172 -28.893278 37.751259 228.744751
[spine01]
23 -0.361383 -0.195265 0.000000 0.001947 0.001311 22.082081 0.410763
24 -0.361383 -0.195265 0.000000 0.001947 0.001311 22.066963 0.410763
[Bip01_Neck]
23 165.484543 71.581718 0.000119 176.643677 -1.657967 43.431911 180.302734
24 165.484543 71.581718 0.000119 176.643677 -1.657967 43.431911 180.302734
[L_humerus]
23 -13.983130 -135.272980 -120.471481 -5.554631 68.658302 84.489037 181.680161
24 -13.983130 -135.272980 -120.471481 -5.500206 68.813156 84.549591 181.680161
[R_humerus]
23 -13.983309 -135.273102 125.287651 27.773092 -69.670456 67.882309 184.909012
24 -13.983309 -135.273102 125.287651 27.859785 -69.834358 67.795120 184.909012
[weapon_bone]
23 235.964890 -300.705902 0.000000 0.000000 -89.951546 -128.212341 382.234833
24 235.964890 -300.705902 0.000000 0.000000 -89.951546 -128.212341 382.234833
[Bip01_Head]
23 213.327026 186.042175 7.559223 5.200446 6.151311 -43.834991 283.155884
24 213.327026 186.042175 7.559228 5.200446 6.151311 -43.834991 283.155884
[eye_left_bone]
23 -24.626970 125.451866 -64.772606 0.000000 -90.000000 -99.840431 143.318359
24 -24.626970 125.451866 -64.772606 0.000000 -90.000000 -99.840431 143.318359
[eye_right_bone]
23 -24.626970 125.451866 64.327362 0.000000 -89.965736 80.156380 143.117676
24 -24.626970 125.451866 64.327362 0.000000 -89.965736 80.156380 143.117676
[L_forearm]
23 322.776093 0.000000 -0.000119 0.000397 -0.002313 -109.492661 322.776093
24 322.776093 0.000000 -0.000119 0.000396 -0.002314 -109.438148 322.776093
[L_front_hand]
23 241.149185 -0.042021 -3.300071 -178.667953 -1.835447 -27.422350 241.171753
24 241.149185 -0.042021 -3.300071 -178.667953 -1.835447 -27.422350 241.171753
[L_weapon_bone]
23 156.183838 0.000000 0.000000 0.000014 0.000007 0.000001 156.183838
24 156.183838 0.000000 0.000000 0.000014 0.000007 0.000001 156.183838
[L_front_hand01_01]
23 86.095154 20.947098 -0.655860 -0.321505 -0.503456 70.187172 88.609184
24 86.095154 20.947098 -0.655860 -0.328329 -0.501879 70.955475 88.609184
[L_front_hand02_01]
23 86.935165 -11.437475 24.513514 146.961197 -57.331734 -52.661167 91.046425
24 86.935165 -11.437475 24.513514 147.981094 -57.745903 -53.867275 91.046425
[L_front_hand03_01]
23 86.637497 -14.123976 -20.424902 -146.985443 55.548405 -54.432819 90.126129
24 86.637497 -14.123976 -20.424902 -147.939621 55.963066 -55.586479 90.126129
[L_front_hand01_02]
23 71.020905 -0.000179 0.000030 0.000319 -0.002325 -105.617981 71.020905
24 71.020905 -0.000179 0.000030 0.000320 -0.002325 -105.670746 71.020905
[L_front_hand02_02]
23 71.020927 -0.000119 0.000060 0.000319 -0.002325 -105.617981 71.020927
24 71.020927 -0.000119 0.000060 0.000320 -0.002325 -105.670746 71.020927
[L_front_hand03_02]
23 71.020905 -0.000060 0.000060 0.000319 -0.002325 -105.617981 71.020905
24 71.020905 -0.000060 0.000060 0.000320 -0.002325 -105.670746 71.020905
[R_forearm]
23 322.776428 -0.000060 0.000030 0.202061 0.065287 -108.136124 322.776428
24 322.776428 -0.000060 0.000030 0.202092 0.065190 -108.081146 322.776428
[R_front_hand]
23 238.847015 -0.006795 2.210259 -2.635298 -10.645461 -26.312506 238.857239
24 238.847015 -0.006795 2.210259 -2.635298 -10.645461 -26.312506 238.857239
[R_weapon_bone]
23 155.664093 0.002503 -0.000030 0.003487 0.001180 -90.988930 155.664078
24 155.664093 0.002503 -0.000030 0.003487 0.001180 -90.988930 155.664078
[R_front_hand01_01]
23 87.624611 14.231146 22.918642 -148.462082 -57.932716 54.541962 91.683487
24 87.624611 14.231146 22.918642 -150.319717 -58.611870 56.726910 91.683487
[R_front_hand02_01]
23 89.356956 14.367283 -19.491137 148.801498 56.299915 56.856495 92.579636
24 89.356956 14.367283 -19.491137 150.553192 56.974068 58.956409 92.579636
[R_front_hand03_01]
23 87.286232 -22.307278 -0.143439 0.131531 -0.433516 -71.547462 90.091743
24 87.286232 -22.307278 -0.143439 0.140549 -0.429018 -72.881996 90.091743
[R_front_hand01_02]
23 71.020905 0.000060 0.000119 0.002323 -0.000334 106.381714 71.020905
24 71.020905 0.000060 0.000119 0.002323 -0.000334 106.381714 71.020905
[R_front_hand02_02]
23 71.020844 -0.000030 -0.000119 0.002323 -0.000334 106.381714 71.020836
24 71.020844 -0.000030 -0.000119 0.002323 -0.000334 106.381714 71.020836
[R_front_hand03_02]
23 71.020905 0.000000 0.000030 0.002323 -0.000334 106.381714 71.020905
24 71.020905 0.000000 0.000030 0.002323 -0.000334 106.381714 71.020905
[null_rope01_connect]
23 328.732483 0.000000 -0.000238 -146.601913 -55.737534 -154.491302 328.732483
24 328.732483 0.000000 -0.000238 -150.188278 -60.916397 -137.725952 328.732483
[Rope1_Seg01]
23 0.000041 -0.000003 0.000013 35.215614 -27.741362 -108.594772 0.000043
24 0.000040 -0.000002 0.000006 40.212399 -13.269192 -114.629471 0.000040
[Rope1_Seg02]
23 139.999863 -0.000179 0.000000 -1.764193 5.610104 -3.581570 139.999863
24 139.999863 -0.000179 0.000000 -5.669950 5.854644 -0.754568 139.999863
[Rope1_Seg03]
23 139.999924 0.000060 -0.000060 -3.185624 8.328063 -6.051683 139.999924
24 139.999924 0.000060 -0.000060 -8.153377 7.178872 -1.360153 139.999924
[Rope1_Seg04]
23 139.999924 -0.000060 -0.000119 -10.636474 13.277300 -8.946031 139.999924
24 139.999924 -0.000060 -0.000119 -14.168641 8.178921 0.377524 139.999924
[Rope1_Seg05]
23 139.999832 0.000119 -0.000060 -11.208493 -0.402034 9.738178 139.999832
24 139.999832 0.000119 -0.000060 -4.598916 -2.204766 6.281444 139.999832
[Rope1_Seg06]
23 139.999954 0.000119 -0.000060 -2.756031 -1.795641 4.736604 139.999954
24 139.999954 0.000119 -0.000060 -1.149931 -1.675637 2.956997 139.999954
[Rope1_Seg07]
23 139.999985 0.000060 0.000000 -1.661810 -0.327533 2.202667 139.999985
24 139.999985 0.000060 0.000000 -1.008788 -0.464326 1.568705 139.999985
[Rope1_Seg09]
23 121.602913 0.000119 -0.000089 -89.793175 -1.359789 0.847147 121.602913
24 121.602913 0.000119 -0.000089 -89.793175 -1.359789 0.847147 121.602913
[L_mid_hand01]
23 103.859421 1.038730 8.195221 130.544373 -67.584534 -38.866943 104.187431
24 103.859421 1.038730 8.195221 130.544373 -67.584534 -38.866943 104.187431
[L_mid_hand02]
23 105.572853 -4.139662 -10.864139 -168.923172 43.409309 -73.498886 106.211075
24 105.572853 -4.139662 -10.864139 -168.923172 43.409309 -73.498894 106.211075
[L_mid_hand03]
23 104.641464 17.579376 -3.913581 -6.012627 17.808174 74.893669 106.179977
24 104.641464 17.579376 -3.913581 -6.012627 17.808174 74.893669 106.179977
[null_rope02_connect]
23 328.732849 0.000179 -0.000119 -129.545334 54.584534 1.391070 328.732849
24 328.732849 0.000179 -0.000119 -132.943146 61.340504 -15.018920 328.732849
[Rope2_Seg01]
23 0.000073 0.000013 0.000000 63.145515 -14.597922 -69.205109 0.000074
24 0.000075 0.000006 0.000000 60.133934 -3.394506 -59.280190 0.000075
[Rope2_Seg02]
23 139.999741 -0.000060 -0.000119 2.799242 1.018587 -3.135209 139.999756
24 139.999741 -0.000060 -0.000119 6.447798 -4.362247 -2.147786 139.999756
[Rope2_Seg03]
23 140.000107 0.000030 0.000000 0.379375 4.814997 -2.556635 140.000107
24 140.000107 0.000030 0.000000 -1.218300 0.280900 0.681237 140.000107
[Rope2_Seg04]
23 139.999802 0.000000 -0.000060 6.364098 -1.191122 -4.221525 139.999802
24 139.999802 0.000000 -0.000060 8.284487 -6.802647 -3.233799 139.999802
[Rope2_Seg05]
23 139.999985 -0.000060 0.000119 10.481432 -16.960739 -3.598945 139.999985
24 139.999985 -0.000060 0.000119 9.702157 -12.166713 -4.339535 139.999985
[Rope2_Seg06]
23 139.999893 -0.000030 -0.000119 2.368616 -7.173252 -0.364909 139.999893
24 139.999893 -0.000030 -0.000119 2.704351 -5.622223 -0.983083 139.999893
[Rope2_Seg07]
23 139.999893 0.000060 -0.000060 0.986272 -3.717002 -0.149106 139.999893
24 139.999893 0.000060 -0.000060 1.209916 -3.179814 -0.393121 139.999893
[Rope2_Seg09]
23 121.338966 0.000089 -0.000060 33.793236 -1.359788 -0.847141 121.338966
24 121.338966 0.000089 -0.000060 33.793236 -1.359788 -0.847141 121.338966
[R_mid_hand01]
23 104.680779 11.144459 -10.335981 -16.212063 45.237247 70.462852 105.778534
24 104.680779 11.144459 -10.335981 -16.212063 45.237247 70.462852 105.778534
[R_mid_hand02]
23 104.070427 2.443552 8.231699 49.067368 -67.749771 39.286453 104.424065
24 104.070427 2.443552 8.231699 49.067368 -67.749771 39.286453 104.424065
[R_mid_hand03]
23 106.028137 -11.221827 -5.996406 -177.101105 15.551026 -76.585571 106.788818
24 106.028137 -11.221827 -5.996406 -177.101105 15.551026 -76.585571 106.788818
[spine02]
23 129.756927 0.001550 0.000119 0.363583 -4.044483 -13.014794 129.756927
24 129.756927 0.001550 0.000119 0.360941 -4.044720 -12.939988 129.756927
[spine03]
23 78.614189 0.081215 -4.899014 1.898670 3.830211 16.538109 78.766731
24 78.614189 0.081196 -4.899015 1.896996 3.831039 16.488060 78.766731
[pelvis]
23 169.435242 0.051022 0.000000 -0.060669 -0.180157 14.217502 169.435257
24 169.435242 0.051022 0.000000 -0.060520 -0.180207 14.122809 169.435257
[null_rope03_connect]
23 -1.257226 -2.466202 137.391083 -154.057922 -86.919678 -139.969498 137.418976
24 -1.257226 -2.466202 137.391083 -170.563538 -88.719765 -126.257568 137.418976
[null_rope04_connect]
23 -1.259640 -2.480268 -137.844437 -154.057922 -86.919678 -139.969498 137.872513
24 -1.259640 -2.480268 -137.844437 -170.563538 -88.719765 -126.257568 137.872513
[Rope3_Seg01]
23 0.000010 0.000003 -0.000013 -133.828674 19.540611 -85.451874 0.000016
24 0.000010 0.000002 -0.000006 -133.763504 21.433893 -83.955727 0.000012
[Rope3_Seg02]
23 139.999924 -0.000119 0.000060 0.044526 -1.293640 -1.606348 139.999924
24 139.999924 -0.000119 0.000060 0.094858 -1.327266 -2.066991 139.999924
[Rope3_Seg03]
23 139.999924 -0.000119 0.000119 0.091952 -1.668450 -2.463084 139.999924
24 139.999924 -0.000119 0.000119 0.134195 -1.672064 -2.978253 139.999924
[Rope3_Seg04]
23 139.999924 0.000119 0.000000 0.073183 -2.237685 -3.660899 139.999924
24 139.999924 0.000119 0.000000 0.102322 -2.241554 -4.384131 139.999924
[Rope3_Seg05]
23 139.999924 -0.000238 0.000060 0.078224 1.725997 5.079355 139.999924
24 139.999924 -0.000238 0.000060 0.115157 1.521321 5.188501 139.999924
[Rope3_Seg06]
23 139.999893 -0.000119 -0.000060 0.263167 2.296041 5.876279 139.999893
24 139.999893 -0.000119 -0.000060 0.258436 2.241011 6.534876 139.999893
[Rope3_Seg07]
23 139.999771 0.000060 -0.000119 0.331694 0.983228 2.715110 139.999771
24 139.999771 0.000060 -0.000119 0.312631 0.933626 2.947325 139.999771
[Rope3_Seg08]
23 139.999985 -0.000060 0.000000 0.397171 0.638650 1.739911 139.999985
24 139.999985 -0.000060 0.000000 0.377729 0.608787 1.888094 139.999985
[Rope3_Seg09]
23 90.185997 -0.000179 -0.000060 89.793228 -1.359877 -0.847183 90.185997
24 90.185997 -0.000179 -0.000060 89.793228 -1.359877 -0.847183 90.185997
[R_rear_hand01]
23 103.366196 -6.073594 -10.757982 -177.714203 24.565960 -73.910950 104.101845
24 103.366196 -6.073594 -10.757982 -177.714203 24.565960 -73.910950 104.101845
[R_rear_hand02]
23 100.509819 12.039542 -7.992327 -12.874829 36.868488 72.167213 101.543350
24 100.509819 12.039542 -7.992327 -12.874829 36.868488 72.167213 101.543350
[R_rear_hand03]
23 101.539970 5.215704 5.435467 71.484581 -71.816628 21.513813 101.819031
24 101.539970 5.215704 5.435467 71.484581 -71.816628 21.513813 101.819031
[Rope4_Seg01]
23 -0.000010 -0.000003 -0.000572 44.419937 24.415617 -116.664375 0.000572
24 -0.000010 -0.000002 -0.000591 44.746704 27.445335 -115.443138 0.000591
[Rope4_Seg02]
23 139.999985 0.000060 0.000119 0.329176 2.300882 4.228767 139.999985
24 139.999985 0.000060 0.000119 0.231379 2.121135 4.384704 139.999985
[Rope4_Seg03]
23 139.999924 0.000000 -0.000238 0.180599 3.400003 6.189912 139.999924
24 139.999924 0.000000 -0.000238 0.018415 3.121704 6.427418 139.999924
[Rope4_Seg04]
23 139.999985 0.000000 0.000119 -1.499153 9.444074 20.626997 139.999985
24 139.999985 0.000000 0.000119 -2.289805 8.637640 21.269999 139.999985
[Rope4_Seg05]
23 139.999802 -0.000060 -0.000119 1.437759 1.061642 -3.626095 139.999802
24 139.999802 -0.000060 -0.000119 1.263750 1.214505 -2.755124 139.999802
[Rope4_Seg06]
23 139.999924 0.000000 0.000060 4.781186 -6.406628 -20.660570 139.999924
24 139.999924 0.000000 0.000060 5.614021 -5.755508 -22.118204 139.999924
[Rope4_Seg07]
23 139.999802 0.000000 0.000000 0.450495 -1.838713 -5.438705 139.999802
24 139.999802 0.000000 0.000000 0.587731 -1.801035 -5.772518 139.999802
[Rope4_Seg08]
23 139.999924 0.000000 0.000119 -1.422185 -1.009407 -2.929160 139.999924
24 139.999924 0.000000 0.000119 -1.362199 -0.984939 -3.078394 139.999924
[Rope4_Seg09]
23 90.185791 0.000060 0.000060 -135.617828 2.228885 0.850567 90.185791
24 90.185791 0.000060 0.000060 -135.617828 2.228885 0.850567 90.185791
[L_rear_hand01]
23 101.696655 -8.392275 -7.654577 -12.874829 -36.868488 107.832764 102.329041
24 101.696655 -8.392275 -7.654577 -12.874829 -36.868488 107.832764 102.329041
[L_rear_hand02]
23 102.726799 -1.568258 5.773216 71.484581 71.816628 158.486160 102.900848
24 102.726799 -1.568258 5.773216 71.484581 71.816628 158.486160 102.900848
[L_rear_hand03]
23 104.552910 9.721220 -10.420293 -177.714203 -24.565960 -106.089035 105.519653
24 104.552910 9.721220 -10.420293 -177.714203 -24.565960 -106.089035 105.519653
